PathFileType	4	(X/Y/Z)	Walk4.trc
DataRate	CameraRate	NumFrames	NumMarkers	Units	OrigDataRate	OrigDataStartFrame	OrigNumFrames
200.000000	200.000000	9	58	mm	200.000000	250	550
Frame#	Times		RBHD		C7		RASI		RACR1		RUA1		RElbow		RFA1		RWRU		RCAR		LFA1		RTH2		RTH3		RBack		LTH2		LElbowM		RLFC		RTB1		RTB3		LTH3		RTH1		RTH4		RMT1		RMT5		LElbow		RTB2		LTH4		LACR1		RTB4		LWRR		LWRU		RMMAL		CLAV		LASI		LPSI		LTB1		LBHD		RPSI		LLFC		T10		RWRR		LFHD		LTB3		LCAR		LTH1		LTB4		RFHD		LMT1		LCAL		RToe		LMMAL		RElbowM		LMT5		RLMAL		LLMAL		LTB2		LToe		LUA1		RCAL
			X1	Y1	Z1	X2	Y2	Z2	X3	Y3	Z3	X4	Y4	Z4	X5	Y5	Z5	X6	Y6	Z6	X7	Y7	Z7	X8	Y8	Z8	X9	Y9	Z9	X10	Y10	Z10	X11	Y11	Z11	X12	Y12	Z12	X13	Y13	Z13	X14	Y14	Z14	X15	Y15	Z15	X16	Y16	Z16	X17	Y17	Z17	X18	Y18	Z18	X19	Y19	Z19	X20	Y20	Z20	X21	Y21	Z21	X22	Y22	Z22	X23	Y23	Z23	X24	Y24	Z24	X25	Y25	Z25	X26	Y26	Z26	X27	Y27	Z27	X28	Y28	Z28	X29	Y29	Z29	X30	Y30	Z30	X31	Y31	Z31	X32	Y32	Z32	X33	Y33	Z33	X34	Y34	Z34	X35	Y35	Z35	X36	Y36	Z36	X37	Y37	Z37	X38	Y38	Z38	X39	Y39	Z39	X40	Y40	Z40	X41	Y41	Z41	X42	Y42	Z42	X43	Y43	Z43	X44	Y44	Z44	X45	Y45	Z45	X46	Y46	Z46	X47	Y47	Z47	X48	Y48	Z48	X49	Y49	Z49	X50	Y50	Z50	X51	Y51	Z51	X52	Y52	Z52	X53	Y53	Z53	X54	Y54	Z54	X55	Y55	Z55	X56	Y56	Z56	X57	Y57	Z57	X58	Y58	Z58

250	1.25	-523.92	1556.4	369.14	-557.33	1419.4	296.15	-468.61	920	436.03	-500.82	1371.3	449.15	-585.78	1193.7	527.7	-660.04	1081.7	551.04	-645.68	935.19	580.67	-674.41	806.77	575.16	-640.44	747.98	587.57	-445.19	993.56	-26.431	-374.39	674.33	440.81	-388.62	557.16	459.92	-636.7	1331.6	384.83	-513.72	619.92	149.17	-602.68	1083	69.122	-349.93	465.02	440.09	-291.66	389.68	360.85	-248.36	204.48	361.11	-604.36	550.42	125.61	-471.87	724.92	489.52	-429.41	640.42	479.18	-118.88	79.313	320.64	-142.77	67.298	401.44	-575.93	1092.5	-8.5957	-282.19	293.83	434.04	-579.18	635.44	109.75	-510.31	1408.7	124.42	-267.92	300.33	362.41	-360.43	921.34	21.813	-417.91	877.73	-16.206	-254	109.86	315.31	-423.85	1333.7	287.41	-480.34	923.54	132.52	-650.35	940.18	236.2	-653.24	339.13	205.74	-521.94	1556.9	230.52	-651.44	939.72	341.41	-654.84	439.36	144.2	-658.29	1111.6	283.45	-601.08	796.19	550.22	-339.12	1573.1	256.63	-751.06	181.87	223.2	-334.75	874.05	-24.255	-550.78	728.01	100.55	-704.46	261.67	215.55	-338.86	1578.6	338.27	-715.66	35.431	275.21	-922.93	67.321	246.91	-77.536	101.05	348.21	-830.87	107.11	286.68	-675.47	1058.1	457	-745.38	29.934	185.17	-275.89	86.978	400.77	-864.15	96.703	199.86	-729.29	270.58	148.42	-667.25	26.66	261.84	-546.81	1221	18.766	-307.14	25.155	357.97
251	1.255	-517.36	1555.4	370.21	-550.62	1418.4	297.04	-461.3	919.06	436.41	-494.28	1370	450.13	-578.83	1192.3	528.3	-653.05	1080.1	551.71	-638.44	933.66	580.88	-667.32	805	575.48	-633.24	746.43	587.9	-438.17	993.01	-26.049	-365.53	673.93	441.31	-379.76	556.65	459.27	-630.1	1330.2	385.4	-507.2	619.19	149.08	-595.97	1082.2	69.44	-341.69	464.34	439.67	-285.26	387.76	359.93	-244.43	202.03	360.2	-598	549.62	125.57	-462.99	724.54	488.9	-420.69	640.1	478.8	-117.05	75.886	319.25	-140.28	64.227	399.91	-569.05	1091.6	-8.4551	-276.01	291.96	433.21	-572.78	634.75	109.81	-503.62	1407.8	125.2	-262.43	297.92	361.66	-353.3	921.09	22.426	-410.81	877.24	-15.747	-251.63	107.3	314.68	-417.09	1332.9	288.21	-473.19	922.42	132.89	-643.15	939.31	236.87	-648.14	338.06	205.96	-515.37	1556	231.49	-643.78	938.78	341.69	-648.74	438.98	144.28	-651.26	1110.7	283.85	-594.1	794.46	550.66	-332.5	1572.4	257.61	-748.46	182.33	222.9	-327.49	873.66	-23.539	-544.21	727.34	100.83	-700.6	261.61	215.39	-332.26	1577.7	339.27	-715.54	35.466	275.12	-922.09	70.518	246.6	-75.164	97.242	346.24	-829.4	108.63	286.34	-668.37	1056.4	457.43	-745.27	29.966	185.2	-272.99	84.814	400.38	-862.72	98.944	199.44	-725.41	270.72	148.3	-667.31	26.689	261.94	-540.16	1220.2	19.368	-305.61	24.405	358.17
252	1.26	-510.82	1554.5	371.11	-543.92	1417.4	297.93	-453.61	918.28	436.89	-487.91	1369.1	450.81	-572.18	1191	528.77	-645.8	1078.5	552	-631.43	932.1	581.21	-660.31	803.53	575.87	-625.94	744.76	588.26	-431.39	992.44	-25.582	-356.79	673.31	441.81	-371.08	556.08	458.32	-623.58	1328.9	385.94	-500.61	618.2	149.04	-589.05	1081.7	69.917	-333.2	463.48	439	-279.1	385.71	359.08	-240.48	199.26	359.46	-591.42	548.91	125.91	-454.46	724.14	488.36	-411.86	639.49	478.17	-115.56	72.445	317.64	-138.28	60.834	398.46	-562.15	1091	-7.9582	-270.68	289.7	432.65	-566.17	634.1	110.25	-497	1407.2	125.86	-257.48	295.5	360.86	-346.37	920.58	22.877	-403.86	876.8	-15.265	-249.74	104.57	314.13	-410.4	1332.1	288.84	-465.88	921.49	133.27	-635.87	938.29	237.62	-643.2	337.12	205.85	-508.91	1555.1	232.58	-636.19	937.65	342.28	-642.41	438.33	144.23	-643.89	1109.5	284.46	-586.78	793.28	550.86	-326.15	1571.8	258.85	-745.67	183.12	222.57	-320.58	873.28	-22.976	-537.66	726.68	100.96	-696.85	261.26	215.19	-325.66	1577.1	340.28	-715.47	35.496	274.98	-920.91	73.893	246.24	-72.866	93.651	344	-827.75	110.52	285.95	-661.15	1055.1	457.99	-745.14	30.03	185.22	-270.66	82.643	400.16	-861.24	101.24	199.07	-721.56	270.96	148.27	-667.32	26.649	262.02	-533.43	1219.6	19.882	-304.66	23.582	358.49
253	1.265	-504.24	1553.6	372.18	-537.16	1416.4	298.87	-445.36	917.44	437.23	-481.37	1368	451.88	-565.42	1189.5	529.44	-638.63	1076.9	552.43	-623.97	930.32	581.69	-652.96	801.85	576.11	-618.89	743.18	588.62	-424.5	991.86	-25.167	-347.72	672.87	442.69	-362.99	555.42	457.29	-616.78	1327.6	386.6	-493.74	617.38	148.89	-582.43	1081	70.299	-325.34	462.5	438.29	-272.89	383.67	358.18	-236.24	196.91	358.13	-584.92	548.12	126.12	-446.09	723.5	488.07	-403.6	638.65	477.63	-114.05	68.217	316.3	-136.3	56.417	396.53	-555.38	1090.3	-7.4059	-264.81	287.63	431.65	-559.34	633.32	110.42	-490.37	1406.4	126.78	-252.16	293.13	359.71	-339.51	920.2	23.404	-396.86	876.15	-14.813	-247.81	102.02	313.26	-403.67	1331.5	289.75	-458.59	920.77	133.42	-628.56	937.46	238.01	-637.97	336.16	205.65	-502.32	1554.4	233.39	-628.32	936.66	342.94	-635.68	437.69	144.43	-636.37	1108.3	285.3	-579.11	791.79	551.19	-319.57	1571.2	259.87	-742.96	183.81	222.39	-313.49	872.98	-22.765	-530.82	726.27	101.5	-692.66	261.23	215.01	-319.17	1576.5	341.19	-715.39	35.528	274.92	-919.84	77.531	245.6	-70.402	89.133	341.34	-826.04	112.31	285.57	-653.7	1053.3	458.43	-744.96	30.135	185.25	-267.88	80.573	399.32	-859.64	103.76	198.58	-717.17	271.24	148.3	-667.38	26.631	262.05	-526.59	1219.1	20.594	-304.47	23.877	358.26
254	1.27	-497.65	1552.8	373.12	-530.67	1415.5	299.79	-437.69	916.67	437.35	-474.82	1367.1	452.85	-558.21	1188.1	530.04	-631.12	1075.4	553.01	-617.2	929.37	582.22	-645.44	800.3	576.51	-611.45	741.63	589.04	-417.98	991.28	-24.651	-339.01	672.26	443.33	-355.25	554.79	456.16	-610.06	1326.5	387.37	-486.65	616.67	148.84	-575.82	1080.4	70.763	-317.72	461.28	438.22	-266.61	381.98	357.21	-231.61	194.92	356.47	-578.1	547.48	126.18	-438.3	722.79	487.63	-395.75	638.11	477.06	-111.7	62.372	315.38	-134.07	49.794	395.04	-548.75	1089.7	-6.7509	-259.18	285.76	430.21	-552.57	632.63	110.41	-483.44	1405.6	127.71	-246.76	291.14	358.45	-332.78	919.69	23.738	-390.19	875.65	-14.418	-245.35	100.5	312.4	-396.8	1330.6	290.67	-451.11	919.82	133.42	-621.13	936.53	238.82	-632.59	335.28	205.93	-495.84	1553.7	234.76	-620.77	935.75	343.57	-628.87	437.09	144.51	-629.14	1107.2	285.91	-571.89	789.95	551.52	-312.89	1570.7	260.78	-739.89	184.38	222.17	-306.98	872.49	-22.602	-524.08	725.45	101.86	-688.29	261.23	214.93	-312.66	1575.9	342.09	-715.27	35.572	274.86	-918.58	81.409	245.07	-68.219	81.8	338.16	-824.07	114.53	284.98	-646.32	1051.8	459.1	-744.71	30.275	185.29	-265	78.886	398.01	-857.83	106.31	198.2	-712.67	271.65	148.15	-667.49	26.626	262.12	-519.95	1218.5	21.186	-303.88	25.341	357.45
255	1.275	-491.15	1552.1	374.15	-523.87	1414.8	300.68	-429.69	915.93	437.2	-468.33	1366.3	453.5	-550.8	1186.8	530.58	-623.65	1073.7	553.46	-609.22	927.76	582.68	-637.63	798.82	576.77	-603.82	740.37	589.35	-411.39	990.76	-23.993	-330.66	671.65	444.22	-348.43	553.92	455.13	-603.39	1325.5	387.81	-479.31	615.76	148.6	-568.93	1079.8	71.36	-310.58	460.43	438.68	-259.92	381.19	356.47	-226.98	193.74	355.42	-570.71	546.85	126.33	-430.69	722.31	487.22	-388.39	637.47	476.59	-108.78	55.556	313.2	-132.16	43.61	394.05	-541.86	1089.2	-6.0446	-253.53	284.75	428.83	-545.29	632.05	110.67	-476.88	1405.2	128.46	-240.86	290.12	357.61	-326.19	919.12	24.197	-383.61	875.1	-14.054	-241.66	99.587	311.52	-389.93	1330.1	291.57	-443.9	918.94	133.61	-613.52	935.91	239.75	-626.48	334.44	205.85	-489.09	1553.4	235.59	-613.34	934.97	344.39	-622.25	436.41	144.83	-621.86	1106.4	286.56	-564.44	788.41	551.93	-306.39	1570.3	261.79	-736.71	185.43	221.96	-300.33	871.81	-21.925	-517.08	724.8	102.44	-683.78	261.31	214.91	-306.06	1575.5	343.15	-715.15	35.617	274.71	-916.96	85.542	244.52	-64.91	72.474	337.24	-821.97	116.5	284.57	-638.66	1050.5	459.54	-744.37	30.41	185.34	-261.69	78.939	397.29	-855.75	109.18	197.64	-707.81	272.38	148.02	-667.55	26.623	262.16	-513.19	1218.2	22.07	-302.28	27.213	357.04
256	1.28	-484.61	1551.7	375.41	-517.36	1414.2	301.45	-421.77	915.69	436.99	-461.48	1365.2	454.68	-543.62	1185.8	531.23	-616.07	1072.4	553.85	-601.21	926.05	582.92	-630.1	797.46	577.12	-596.05	738.84	589.78	-404.86	990.07	-23.414	-322.94	671.06	444.99	-341.99	553.24	454.76	-596.34	1324.6	388.58	-471.85	615.09	148.5	-562.46	1079.2	71.853	-304.1	460.03	439.36	-252.8	381.14	355.78	-222.05	193.14	354.79	-563.4	546.03	126.52	-422.97	722.12	487.2	-381.7	636.76	476.26	-106.32	50.267	311.56	-130.05	39.739	392.62	-535.28	1088.9	-5.3948	-246.57	284.65	427.93	-538.15	631.4	110.95	-470	1404.6	129.5	-234.74	289.7	356.99	-319.85	918.24	24.692	-377.07	874.49	-13.493	-237.65	98.945	311.22	-382.82	1329.5	292.47	-436.44	918.3	133.86	-605.65	935.3	240.5	-620.44	333.62	205.92	-482.73	1552.9	236.71	-605.93	934.63	345.18	-614.67	435.72	145.15	-614.58	1106.2	287.12	-556.57	787.14	552.21	-299.55	1570	262.77	-732.96	186.51	221.65	-293.9	871.17	-21.562	-509.9	723.98	102.99	-679.08	261.38	215.06	-299.2	1575	344.26	-714.99	35.621	274.86	-915.09	89.864	243.78	-61.513	64.458	338.25	-819.81	118.81	283.98	-631.25	1048.9	460.11	-743.84	30.699	185.36	-257.68	79.639	397.99	-853.47	112.12	196.97	-702.98	272.88	148.03	-667.62	26.651	262.27	-506.62	1217.8	22.763	-300.97	28.637	357.34
257	1.285	-477.9	1551.5	376.44	-510.68	1413.8	302.35	-414.03	915.78	436.85	-454.65	1364.5	455.48	-536.55	1184.7	531.92	-608.22	1071.1	554.44	-593.17	924.71	583.23	-622.1	796.14	577.56	-587.95	737.48	590.08	-398.32	989.58	-22.864	-315.45	670.31	445.8	-335.67	552.54	454.58	-589.49	1323.7	389.55	-464.44	614.09	149.05	-555.72	1078.9	72.422	-297.29	460.11	440.28	-245.63	381.15	355.23	-217.72	192.77	354.68	-555.67	545.39	127.05	-415.42	721.71	487.52	-374.9	636.1	476.2	-104.21	47.607	310.81	-127.83	37.331	392.03	-528.46	1088.6	-4.6355	-238.79	285.01	427.75	-530.65	630.4	111.85	-463.46	1404.3	130.32	-229.27	289.39	356.71	-313.54	917.5	25.063	-370.91	873.82	-13.321	-234.76	98.465	311.35	-375.73	1329.4	293.32	-428.92	917.85	133.94	-597.93	934.99	241.03	-613.96	332.55	206.29	-475.99	1552.8	238.2	-598.2	934.42	346.12	-606.97	435.21	145.22	-607.56	1105.8	287.69	-548.63	786.03	552.42	-292.85	1570.1	263.77	-729.61	187.84	221.88	-287.83	870.42	-21.284	-502.35	723.51	103.58	-673.89	261.55	215.2	-292.51	1575.1	345.38	-714.84	35.683	274.84	-912.92	94.626	242.87	-59.378	60.657	337.45	-817.11	121.18	283.25	-623.63	1047.4	460.56	-743.13	31.127	185.47	-254.1	80.114	399.03	-850.86	115.36	196.36	-697.71	273.51	148.12	-667.72	26.654	262.37	-499.88	1217.5	23.637	-299.52	29.729	358.03
258	1.29	-470.97	1551.4	377.61	-503.84	1413.6	303.45	-406.12	915.89	436.72	-447.74	1363.8	456.23	-529.06	1183.6	532.49	-600.56	1069.7	554.92	-585.16	923.44	583.7	-613.7	794.83	577.77	-579.96	736.27	590.57	-391.95	988.91	-22.186	-308.16	669.74	446.7	-328.92	552.11	454.93	-582.53	1323.1	390.32	-456.27	613.76	149.15	-548.99	1078.5	73.202	-289.82	460.65	440.69	-238.38	381.06	354.94	-213.75	192.13	354.55	-547.48	544.76	127.24	-408.31	721.32	487.97	-368.05	635.88	476.53	-102.87	45.768	310.56	-125.76	36.929	392.83	-521.95	1088.4	-4.0572	-231.61	285.11	427.91	-522.66	629.98	111.9	-457.12	1404.2	131.09	-224.22	288.8	356.26	-306.97	916.93	25.615	-364.79	873.32	-12.819	-232.57	98.191	311.45	-368.73	1329.4	294.21	-421.4	917.35	133.99	-590.44	934.6	241.72	-607.51	331.82	206.95	-469.21	1552.8	239.04	-590.78	934.36	346.93	-598.78	434.63	145.77	-600.18	1105.5	288.18	-540.46	784.86	552.64	-286.08	1570.4	264.83	-725.72	189.23	222.02	-281.8	869.62	-20.691	-494.7	723.16	103.99	-668.7	261.89	215.45	-285.76	1575.4	346.43	-714.61	35.745	274.68	-910.41	99.751	242.11	-57.624	59.275	334.89	-814.46	123.83	282.74	-616	1046.3	461.13	-742.51	31.443	185.4	-251.32	80.056	399.52	-847.93	118.8	195.7	-691.8	274.3	148.3	-667.84	26.643	262.25	-493.23	1217.2	24.509	-298.36	30.372	358.57
